<?xml version="1.0" encoding="UTF-8"?>
<svg width="808px" height="338px" viewBox="0 0 808 338" version="1.1" xmlns="http://www.w3.org/2000/svg" xmlns:xlink="http://www.w3.org/1999/xlink">
    <!-- Generator: Sketch 59.1 (86144) - https://sketch.com -->
    <title>logo-black</title>
    <desc>Created with Sketch.</desc>
    <defs>
        <polygon id="path-1" points="0.0550909091 0.115728261 201.850336 0.115728261 201.850336 337.998163 0.0550909091 337.998163"></polygon>
    </defs>
    <g id="Page-1" stroke="none" stroke-width="1" fill="none" fill-rule="evenodd">
        <g id="logo-black">
            <g id="lmn-black">
                <polyline id="Fill-1" fill="#0C0E0C" points="341.200036 66.2985163 330.123091 47.7672989 330.123091 200.578201 341.200036 218.090826 341.200036 66.2985163"></polyline>
                <polyline id="Fill-2" fill="#0C0E0C" points="358.531636 95.296712 347.457445 76.7719239 347.457445 227.990185 358.531636 245.49638 358.531636 95.296712"></polyline>
                <polyline id="Fill-3" fill="#0C0E0C" points="312.791491 173.17081 323.865682 190.677924 323.865682 37.2948098 312.791491 18.7700217 312.791491 173.17081"></polyline>
                <polygon id="Fill-4" fill="#0C0E0C" points="538.133509 337.999082 549.206782 337.999082 549.206782 0.115728261 538.133509 0.115728261"></polygon>
                <polygon id="Fill-5" fill="#0C0E0C" points="503.465718 337.999082 514.538991 337.999082 514.538991 0.115728261 503.465718 0.115728261"></polygon>
                <polygon id="Fill-6" fill="#0C0E0C" points="468.793336 337.999082 479.873036 337.999082 479.873036 0.115728261 468.793336 0.115728261"></polygon>
                <polygon id="Fill-7" fill="#0C0E0C" points="486.131364 337.999082 497.207391 337.999082 497.207391 0.115728261 486.131364 0.115728261"></polygon>
                <polygon id="Fill-8" fill="#0C0E0C" points="520.800073 337.999082 531.8761 337.999082 531.8761 0.115728261 520.800073 0.115728261"></polygon>
                <polyline id="Fill-9" fill="#0C0E0C" points="375.865991 124.301337 364.789964 105.77012 364.789964 255.395739 375.865991 272.908364 375.865991 124.301337"></polyline>
                <polygon id="Fill-10" fill="#0C0E0C" points="278.120945 337.999082 289.196973 337.999082 289.196973 0.115728261 278.120945 0.115728261"></polygon>
                <polygon id="Fill-11" fill="#0C0E0C" points="226.1188 337.999082 237.194827 337.999082 237.194827 0.115728261 226.1188 0.115728261"></polygon>
                <polygon id="Fill-12" fill="#0C0E0C" points="243.455909 337.999082 254.531936 337.999082 254.531936 0.115728261 243.455909 0.115728261"></polygon>
                <polyline id="Fill-13" fill="#0C0E0C" points="393.202182 105.77012 382.125236 124.288478 382.125236 272.908364 393.202182 255.110092 393.202182 105.77012"></polyline>
                <polygon id="Fill-14" fill="#0C0E0C" points="260.789345 337.999082 271.863536 337.999082 271.863536 0.115728261 260.789345 0.115728261"></polygon>
                <polygon id="Fill-15" fill="#0C0E0C" points="208.784445 337.999082 219.857718 337.999082 219.857718 0.115728261 208.784445 0.115728261"></polygon>
                <polyline id="Fill-16" fill="#0C0E0C" points="410.533782 76.7719239 399.459591 95.2213967 399.459591 245.49638 410.533782 227.759647 410.533782 76.7719239"></polyline>
                <polyline id="Fill-17" fill="#0C0E0C" points="427.869973 47.7672989 416.792109 66.3591359 416.792109 217.879576 427.869973 200.401853 427.869973 47.7672989"></polyline>
                <polyline id="Fill-18" fill="#0C0E0C" points="295.4553 0.117565217 295.4553 145.756989 306.532245 163.273288 306.532245 8.29753261 301.645682 0.117565217 295.4553 0.117565217"></polyline>
                <polyline id="Fill-19" fill="#0C0E0C" points="445.205245 18.7700217 434.1283 37.2406196 434.1283 190.522701 445.205245 173.04406 445.205245 18.7700217"></polyline>
                <polyline id="Fill-20" fill="#0C0E0C" points="556.666091 0.117565217 556.666091 338 563.292609 338 563.292609 152.648332 703.738618 338 782.858345 338 782.858345 0.117565217 692.972936 0.117565217 692.972936 178.707397"></polyline>
                <g id="Group-23">
                    <mask id="mask-2" fill="white">
                        <use xlink:href="#path-1"></use>
                    </mask>
                    <g id="Clip-22"></g>
                    <path d="M90.8228727,255.943152 L90.8228727,0.114809783 L0.000918181818,0.114809783 L0.000918181818,291.21731 C2.00714545,306.048897 11.0319545,332.672826 48.9978545,337.998163 L201.850336,337.998163 L201.850336,255.943152 L90.8228727,255.943152" id="Fill-21" fill="#0C0E0C" mask="url(#mask-2)"></path>
                </g>
                <path d="M796.521809,327.127054 L799.1322,327.127054 L801.992336,331.715772 L804.849718,327.127054 L807.390327,327.127054 L807.390327,337.999082 L805.0609,337.999082 L805.0609,330.656766 L802.062118,335.42275 L801.850018,335.42275 L798.851236,330.656766 L798.851236,337.999082 L796.521809,337.999082 L796.521809,327.127054 Z M788.510673,329.315788 L785.2649,329.315788 L785.2649,327.127054 L794.228191,327.127054 L794.228191,329.315788 L790.980582,329.315788 L790.980582,337.999082 L788.510673,337.999082 L788.510673,329.315788 L788.510673,329.315788 Z" id="Fill-24" fill="#0A0B09"></path>
                <polyline id="Fill-25" fill="#0C0E0C" points="462.537764 0.117565217 462.537764 145.756989 451.460818 163.273288 451.460818 8.29753261 456.347382 0.117565217 462.537764 0.117565217"></polyline>
            </g>
        </g>
    </g>
</svg>