<?xml version="1.0" encoding="UTF-8" standalone="no"?>
<svg width="283px" height="153px" viewBox="0 0 283 153" version="1.1" xmlns="http://www.w3.org/2000/svg" xmlns:xlink="http://www.w3.org/1999/xlink">
    <!-- Generator: Sketch 42 (36781) - http://www.bohemiancoding.com/sketch -->
    <title>aetn-charcoal-stacked</title>
    <desc>Created with Sketch.</desc>
    <defs></defs>
    <g id="Page-1" stroke="none" stroke-width="1" fill="none" fill-rule="evenodd">
        <g id="aetn-charcoal-stacked" fill="#1A1918">
            <path d="M35.905,70.104 L65.676,70.104 L55.595,38.256 C53.703,32.381 51.026,21.248 51.026,21.248 L50.712,21.248 C50.712,21.248 47.878,32.381 45.986,38.256 L35.905,70.104 Z M39.215,0.22 L62.837,0.22 L102.526,110.768 L78.747,110.768 L71.187,87.269 L30.551,87.269 L23.152,110.768 L0,110.768 L39.215,0.22 L39.215,0.22 Z" id="Fill-1"></path>
            <polyline id="Fill-2" points="198.939 0.219 198.939 110.771 282.25 110.771 282.25 92.06 221.777 92.06 221.777 64.095 274.381 64.095 274.381 45.696 221.777 45.696 221.777 19.083 282.23 19.083 282.23 0.219 198.939 0.219"></polyline>
            <polyline id="Fill-3" points="107.517 54.132 142.222 54.132 142.222 19.238 144.737 19.238 144.737 54.132 179.608 54.132 179.608 56.435 144.737 56.435 144.737 91.657 142.222 91.657 142.222 56.435 107.517 56.435 107.517 54.132"></polyline>
            <path d="M64.319,149.463 C63.988,148.873 63.277,147.639 62.559,146.563 L53.524,132.779 L53.485,132.719 L51.277,132.719 L51.277,152.615 L53.3,152.615 L53.3,135.93 C53.666,136.542 54.492,137.909 55.171,138.937 L64.176,152.555 L64.216,152.615 L66.342,152.615 L66.342,132.719 L64.319,132.719 L64.319,149.463" id="Fill-4"></path>
            <polyline id="Fill-5" points="75.928 132.719 75.928 152.615 89.838 152.615 89.838 150.648 78.033 150.648 78.033 143.254 88.577 143.254 88.577 141.394 78.033 141.394 78.033 134.604 89.537 134.604 89.537 132.719 75.928 132.719"></polyline>
            <polyline id="Fill-6" points="96.623 132.719 96.623 134.631 103.267 134.631 103.267 152.615 105.371 152.615 105.371 134.631 111.99 134.631 111.99 132.719 96.623 132.719"></polyline>
            <path d="M137.284,146.052 L137.282,146.054 C137.022,147.119 136.653,148.718 136.479,149.485 C136.301,148.727 135.934,147.159 135.672,146.133 L132.076,132.817 L132.05,132.719 L129.869,132.719 L126.248,146.161 C125.967,147.18 125.596,148.725 125.417,149.48 C125.248,148.709 124.889,147.116 124.608,146.052 L121.204,132.819 L121.18,132.719 L119.009,132.719 L124.296,152.615 L126.45,152.615 L130.319,138.211 C130.547,137.34 130.816,136.145 130.959,135.493 C131.106,136.15 131.381,137.357 131.628,138.211 L135.363,152.515 L135.389,152.615 L137.458,152.615 L142.811,132.886 L142.856,132.719 L140.742,132.719 L137.284,146.052" id="Fill-7"></path>
            <path d="M158.547,132.307 C153.101,132.307 149.299,136.561 149.299,142.653 C149.299,148.746 153.101,153 158.547,153 C164.024,153 167.85,148.746 167.85,142.653 C167.85,136.561 164.024,132.307 158.547,132.307 M165.663,142.653 C165.663,147.777 162.87,151.088 158.547,151.088 C154.258,151.088 151.487,147.777 151.487,142.653 C151.487,137.53 154.258,134.219 158.547,134.219 C162.87,134.219 165.663,137.53 165.663,142.653" id="Fill-8"></path>
            <path d="M190.414,148.166 C190.273,145.038 189.564,143.626 187.736,142.917 C189.85,142.16 190.88,140.598 190.88,138.151 C190.88,134.75 188.747,132.719 185.174,132.719 L176.282,132.719 L176.282,152.615 L178.388,152.615 L178.388,143.857 L184.24,143.857 C187.165,143.857 188.153,144.886 188.309,148.097 C188.479,151.586 188.595,152.258 189.081,152.591 L189.114,152.615 L191.264,152.615 L191.264,152.303 L191.207,152.263 C190.773,151.963 190.521,150.661 190.414,148.166 M178.388,134.604 L184.789,134.604 C187.508,134.604 188.721,135.749 188.721,138.315 C188.721,140.743 187.276,142.026 184.542,142.026 L178.388,142.026 L178.388,134.604" id="Fill-9"></path>
            <polyline id="Fill-10" points="211.746 132.719 201.336 142.994 201.336 132.719 199.231 132.719 199.231 152.615 201.336 152.615 201.336 145.62 204.702 142.305 212.382 152.562 212.422 152.615 214.946 152.615 206.156 140.855 214.283 132.947 214.515 132.719 211.746 132.719"></polyline>
            <path d="M228.325,141.179 L228.323,141.179 C224.788,140.515 223.105,139.812 223.105,137.601 C223.105,135.464 224.895,134.138 227.777,134.138 C230.631,134.138 232.445,135.626 232.753,138.222 L232.767,138.339 L234.816,138.339 L234.8,138.192 C234.407,134.469 231.838,132.334 227.749,132.334 C223.745,132.334 221.055,134.473 221.055,137.656 C221.055,140.139 222.124,142.002 227.339,143.029 C231.465,143.867 233.273,144.512 233.273,147.183 C233.273,149.604 231.353,151.169 228.382,151.169 C224.761,151.169 222.576,149.323 222.391,146.105 L222.385,145.98 L220.279,145.98 L220.286,146.119 C220.534,150.41 223.55,152.972 228.354,152.972 C232.572,152.972 235.406,150.613 235.406,147.101 C235.406,142.897 232.198,141.931 228.325,141.179" id="Fill-11"></path>
            <path d="M242.769,132.512 L243.728,132.512 L244.472,135.127 L244.484,135.127 L245.24,132.512 L246.211,132.512 L246.211,135.942 L245.588,135.942 L245.588,133.316 L245.563,133.316 C245.563,133.316 245.42,133.855 245.288,134.288 L244.796,135.942 L244.16,135.942 L243.669,134.288 C243.549,133.891 243.404,133.316 243.404,133.316 L243.381,133.316 L243.381,135.942 L242.769,135.942 L242.769,132.512 Z M239.375,132.512 L242.205,132.512 L242.205,133.076 L241.126,133.076 L241.126,135.942 L240.454,135.942 L240.454,133.076 L239.375,133.076 L239.375,132.512 L239.375,132.512 Z" id="Fill-12"></path>
        </g>
    </g>
</svg>