<svg width="150" height="76" viewBox="0 0 150 76" xmlns="http://www.w3.org/2000/svg"><g fill="#000000" fill-rule="evenodd"><path d="M67.154 53.483c0 6.047 5.477 11.51 11.353 11.51 4.105 0 6.765-1.105 9.995-4.078l-14.53-18.43c-4.206 3.076-6.818 5.77-6.818 10.998M79.652 22.244c2.195-1.59 3.994-3.458 3.994-5.938 0-3.276-2.13-5.91-5.665-5.91-3.722 0-5.682 2.614-5.682 5.894 0 2.582 2.098 5.06 4.486 7.943.95-.602 2.868-1.99 2.868-1.99M148.384 73.704c0-.422-.25-.61-.75-.61h-.797v2.13h.32v-.925h.363l.56.923h.352l-.6-.935c.312-.042.552-.2.552-.584m-1.226.327v-.667h.436c.363 0 .46.118.46.32 0 .233-.125.348-.517.348h-.38"/><path d="M147.543 72.318c-.997 0-1.845.78-1.845 1.838 0 1.067.848 1.844 1.845 1.844.988 0 1.83-.777 1.83-1.844 0-1.06-.842-1.838-1.83-1.838m0 3.383c-.84 0-1.49-.648-1.49-1.544 0-.883.65-1.536 1.49-1.536.833 0 1.48.653 1.48 1.536 0 .896-.647 1.545-1.48 1.545M107.636 61.928l11.46 14.055 24.664-.002.004-18.292-32.324-.008c-2.544 2.96-2.89 3.187-3.804 4.248M104.614 29.54V17.22h39.152V.01L88.26.017c5.81 3.044 9.175 8.897 9.175 16.05 0 6.002-3.044 10.04-7.66 13.53 0 0-3.463 2.723-5.35 4.04l14.522 17.6 5.73-6.152h36.732V29.542h-36.796M67.783.014L29.82.01 0 75.98l25.224.008 4.873-14.093h23.608c-.848-2.6-1.285-5.516-1.285-8.74 0-9.923 6.928-16.358 13.435-20.835-3.047-3.596-7.45-9.048-7.45-16.466 0-7.117 3.372-12.848 9.378-15.84m-33.09 44.25l8.018-24.29 7.8 24.29H34.694"/></g></svg>
