<?xml version="1.0" encoding="UTF-8" standalone="no"?>
<svg width="91px" height="14px" viewBox="0 0 91 14" version="1.1" xmlns="http://www.w3.org/2000/svg" xmlns:xlink="http://www.w3.org/1999/xlink" xmlns:sketch="http://www.bohemiancoding.com/sketch/ns">
    <!-- Generator: Sketch 3.5.2 (25235) - http://www.bohemiancoding.com/sketch -->
    <title>logo</title>
    <desc>Created with Sketch.</desc>
    <defs></defs>
    <g id="Page-1" stroke="none" stroke-width="1" fill="none" fill-rule="evenodd" sketch:type="MSPage">
        <g id="logo" sketch:type="MSLayerGroup" fill="#000000">
            <path d="M0.9,1.1 L4.8,1.1 L7,9 L9.2,1.1 L13,1.1 L8.9,13 L5,13 L0.9,1.1 L0.9,1.1 Z" id="Shape" sketch:type="MSShapeGroup"></path>
            <path d="M13.6,12.9 L13.6,1.1 L17.5,1.1 L17.5,13 L13.6,13 L13.6,12.9 Z" id="Shape" sketch:type="MSShapeGroup"></path>
            <path d="M26.9,5.6 C26.8,4.4 26,3.7 24.8,3.7 C23.4,3.7 22.6,4.9 22.6,7.2 C22.6,8.9 23,10.4 24.9,10.4 C26.2,10.4 26.7,9.5 26.9,8.4 L30.6,8.4 C30.3,11.5 28.1,13.3 24.9,13.3 C21,13.3 18.6,10.9 18.6,7 C18.6,3.2 21.2,0.8 24.5,0.8 C28.1,0.8 30.2,2.6 30.5,5.7 L26.9,5.7 L26.9,5.6 Z" id="Shape" sketch:type="MSShapeGroup"></path>
            <path d="M32,12.9 L32,1.1 L41.7,1.1 L41.7,3.9 L35.9,3.9 L35.9,5.6 L41.2,5.6 L41.2,8.4 L35.9,8.4 L35.9,10.3 L41.9,10.3 L41.9,13.1 L32,13.1 L32,12.9 Z" id="Shape" sketch:type="MSShapeGroup"></path>
            <path d="M43.6,12.9 L43.6,1.1 L47.5,1.1 L47.5,10.2 L52.8,10.2 L52.8,13 L43.6,13 L43.6,12.9 Z" id="Shape" sketch:type="MSShapeGroup"></path>
            <path d="M53.4,12.9 L57.7,1 L61.7,1 L66,12.9 L62,12.9 L61.5,11.3 L57.6,11.3 L57.2,12.9 L53.4,12.9 L53.4,12.9 Z M59.6,4.6 L58.4,8.9 L60.9,8.9 L59.6,4.6 L59.6,4.6 Z" id="Shape" sketch:type="MSShapeGroup"></path>
            <path d="M74.4,7.5 L74.3,4.8 L74.3,1 L78,1 L78,12.9 L74.4,12.9 L70.2,6.4 L70.3,9.1 L70.3,12.9 L66.6,12.9 L66.6,1.1 L70.2,1.1 L74.4,7.5 L74.4,7.5 Z" id="Shape" sketch:type="MSShapeGroup"></path>
            <path d="M79.6,12.9 L79.6,1.1 L84.8,1.1 C88.6,1.1 91,2.9 91,6.8 C91,11.3 88.5,13 84.7,13 L79.6,13 L79.6,12.9 Z M83.5,10.2 L84.3,10.2 C86.1,10.2 87.1,9.2 87.1,7 C87.1,4.5 86.3,3.9 84.2,3.9 L83.5,3.9 L83.5,10.2 L83.5,10.2 Z" id="Shape" sketch:type="MSShapeGroup"></path>
        </g>
    </g>
</svg>