<svg width="437" height="500" viewBox="0 0 437 500" fill="none" xmlns="http://www.w3.org/2000/svg">
<path fill-rule="evenodd" clip-rule="evenodd" d="M395.61 366.066V360.042L392.225 359.996C392.225 359.996 385.107 360.408 376.761 355.155C365.723 348.837 366.239 334.013 366.239 334.013V328.518L366.259 328.564V30.8702C366.396 27.2703 367.579 16.1636 376.761 10.9107C385.107 5.6579 392.225 6.06952 392.225 6.06952L395.61 5.98458V0H253.292V5.98458L256.677 6.06952C256.677 6.06952 263.794 5.6579 272.14 10.9107C281.388 16.2093 282.525 27.4402 282.643 30.9486V37.3122H282.656V40.409L282.525 130.152H154.709L154.579 40.409V37.3122H154.592V30.9486C154.716 27.4402 155.847 16.2028 165.094 10.9107C173.44 5.6579 180.557 6.06952 180.557 6.06952L183.943 5.98458V0H41.6311V5.98458L45.01 6.06952C45.01 6.06952 52.1272 5.6579 60.4797 10.9107C69.6556 16.1636 70.8385 27.2638 70.9823 30.8702V328.557L70.9954 328.512V334.006C70.9954 334.006 71.5183 348.824 60.4732 355.148C52.1273 360.401 45.0035 359.99 45.0035 359.99L41.6246 360.035V366.059H183.943V360.035L180.557 359.99C180.557 359.99 173.44 360.401 165.094 355.148C156.533 350.248 154.932 340.259 154.637 336.012L154.592 209.088H282.643L282.597 336.012C282.303 340.259 280.702 350.248 272.14 355.148C263.794 360.401 256.677 360.035 256.677 360.035H253.292V366.059L395.61 366.066ZM327.719 333.046H320.993V172.926H116.012V333.046H109.281V27.5317H116.012V166.203H320.987V27.5317H327.719V333.046Z" fill="black"/>
<path d="M437 398.523H0V391.794H437V398.523Z" fill="black"/>
<path d="M119.091 474.409C121.64 480.779 126.953 485.025 133.43 485.025C138.639 485.025 142.992 482.373 142.992 477.59C142.992 473.978 140.547 471.541 135.234 469.626L126.313 466.438C115.477 462.511 108.575 455.926 108.575 445.198C108.575 431.713 118.875 422.9 132.901 422.9C143.946 422.9 153.619 428.949 158.18 438.932L144.907 446.577C142.671 441.585 138.744 437.658 133.221 437.658C128.332 437.658 124.934 440.311 124.934 444.244C124.934 447.746 127.587 449.869 132.156 451.568L141.822 455.286C153.716 459.748 159.455 466.543 159.455 476.526C159.455 491.396 147.024 499.993 133.214 499.993C120.895 499.993 110.059 493.512 105.386 481.733L119.091 474.409Z" fill="black"/>
<path d="M18.5612 424.285H2.52295V498.615H18.5612V468.352H48.3045V498.615H64.3428V424.285H48.3045V453.064H18.5612V424.285Z" fill="black"/>
<path d="M94.4456 424.285V498.615H78.4073V424.285H94.4456Z" fill="black"/>
<path d="M221.033 424.285H165.801V439.148H185.453V498.615H201.491V439.148H221.033V424.285Z" fill="black"/>
<path fill-rule="evenodd" clip-rule="evenodd" d="M224.712 461.453C224.712 482.902 242.031 500 263.592 500C285.153 500 302.466 482.902 302.472 461.453C302.472 440.004 285.153 422.906 263.592 422.906C242.025 422.906 224.712 440.004 224.712 461.453ZM241.077 461.453C241.077 448.602 250.952 438.41 263.592 438.41C276.232 438.41 286.114 448.602 286.114 461.453C286.114 474.304 276.232 484.496 263.592 484.496C250.952 484.496 241.077 474.304 241.077 461.453Z" fill="black"/>
<path fill-rule="evenodd" clip-rule="evenodd" d="M313.027 498.615H328.856V471.43H333.104L351.378 498.615H370.181L349.679 469.522C358.6 466.124 364.972 458.689 364.972 448.073C364.972 432.889 353.816 424.285 337.777 424.285H313.027V498.615ZM337.882 458.265H328.856V438.625H337.882C344.254 438.625 348.927 442.127 348.927 448.393C348.927 454.547 344.254 458.265 337.882 458.265Z" fill="black"/>
<path d="M394.401 498.615H410.44V466.333L436.994 424.285H419.04L402.577 451.47L386.114 424.285H367.841L394.401 466.333V498.615Z" fill="black"/>
<path d="M423.074 489.017H426.061V488.009H418.875V489.017H421.855V497.299H423.074V489.017Z" fill="black"/>
<path d="M429.023 488.009L432.061 495.589L435.099 488.009H436.688V497.299H435.462V493.681L435.577 489.776L432.527 497.299H431.588L428.544 489.795L428.665 493.681V497.299H427.44V488.009H429.023Z" fill="black"/>
</svg>
