<?xml version="1.0" encoding="UTF-8" standalone="no"?>
<svg width="302px" height="199px" viewBox="0 0 302 199" version="1.1" xmlns="http://www.w3.org/2000/svg" xmlns:xlink="http://www.w3.org/1999/xlink">
    <!-- Generator: Sketch 41.2 (35397) - http://www.bohemiancoding.com/sketch -->
    <title>fyi-black</title>
    <desc>Created with Sketch.</desc>
    <defs>
        <polygon id="path-1" points="293.721 197.94 0.06 197.94 0.06 0.195 293.721 0.195"></polygon>
    </defs>
    <g id="Page-1" stroke="none" stroke-width="1" fill="none" fill-rule="evenodd">
        <g id="fyi-black">
            <path d="M226.082,39.807 C215.176,39.807 206.305,30.932 206.305,20.025 C206.305,9.119 215.176,0.246 226.082,0.246 C236.988,0.246 245.861,9.119 245.861,20.025 C245.861,30.932 236.988,39.807 226.082,39.807" id="Fill-1" fill="#1A1918"></path>
            <polyline id="Fill-2" fill="#1A1918" points="208.107 158.51 208.107 81.377 186.879 81.377 197.439 51.842 244.803 51.842 244.803 158.51 208.107 158.51"></polyline>
            <g id="Group-7" transform="translate(0.000000, 1.000000)">
                <mask id="mask-2" fill="white">
                    <use xlink:href="#path-1"></use>
                </mask>
                <g id="Clip-4"></g>
                <path d="M273.953,179.879 L273.949,158.637 C263.043,158.637 254.17,149.764 254.17,138.857 C254.17,127.951 263.039,119.078 273.947,119.078 C284.852,119.078 293.721,127.951 293.721,138.857 C293.721,141.092 293.186,143.644 292.682,145.289 C291.846,147.992 282.012,174.65 280.08,179.879 L273.953,179.879" id="Fill-3" fill="#1A1918" mask="url(#mask-2)"></path>
                <path d="M104.123,197.984 L94.273,170.316 L95.354,170.32 C103.604,170.072 110.057,166.297 113.568,159.682 L113.842,159.164 L74.992,50.842 L109.691,50.842 L131.357,110.752 L153.025,50.842 L187.727,50.842 L149.217,158.195 L149.217,158.207 C139.945,185.283 127.764,196.451 105.822,198 L104.123,197.984" id="Fill-5" fill="#1A1918" mask="url(#mask-2)"></path>
                <path d="M52.265,50.842 L52.265,41.459 C52.265,31.785 56,26.873 66.388,26.873 L71.604,26.873 L62.81,0.195 C62.81,0.195 57.291,0.223 56.856,0.223 C28.75,0.223 15.574,12.769 15.574,37.703 L15.574,50.842 L0,50.842 L0,80.26 L15.563,80.26 L15.563,157.51 L52.246,157.51 L52.246,80.355 L75.78,80.355 L65.231,50.842 L52.265,50.842" id="Fill-6" fill="#1A1918" mask="url(#mask-2)"></path>
            </g>
            <path d="M297.666,121.482 L298.842,124.775 L300.025,121.482 L301.334,121.482 L301.334,126.084 L300.489,126.084 L300.489,122.371 L299.216,126.084 L298.479,126.084 L297.195,122.371 L297.195,126.084 L296.351,126.084 L296.351,121.482 L297.666,121.482 Z M291.646,122.25 L291.646,121.482 L295.57,121.482 L295.57,122.25 L294.065,122.25 L294.065,126.084 L293.151,126.084 L293.151,122.25 L291.646,122.25 L291.646,122.25 Z" id="Fill-8" fill="#1A1918"></path>
        </g>
    </g>
</svg>