<?xml version="1.0" encoding="UTF-8"?>
<svg width="965px" height="294px" viewBox="0 0 965 294" version="1.1" xmlns="http://www.w3.org/2000/svg" xmlns:xlink="http://www.w3.org/1999/xlink">
    <title>Lifetime Logo</title>
    <g id="web" stroke="none" stroke-width="1" fill="none" fill-rule="evenodd">
        <g id="logo-black" transform="translate(-36.000000, -13.000000)" fill="#000000">
            <g id="Lifetime_Logo(R)_Black" transform="translate(36.633152, 13.036058)">
                <path d="M68.5027211,218.99115 L76.0092346,218.99115 C110.255967,218.99115 131.8962,200.726616 162.838586,156.107652 L163.440217,156.107652 L140.911421,226.213942 L0,226.213942 L0,225.614349 C13.5135756,217.828861 16.8271783,210.642966 21.6309768,190.884062 L56.4793412,51.9444638 C58.5804245,43.2641982 59.7836881,36.9730811 59.7836881,32.1855594 C59.7836881,25.5992579 57.9880486,21.402105 52.2771745,17.2141766 L52.2771745,16.6145833 L131.877688,16.6145833 L131.877688,17.2141766 C118.354857,24.9996646 115.05051,32.1855594 110.246711,51.9444638 L68.5027211,218.99115 Z" id="Path" fill-rule="nonzero"></path>
                <path d="M215.428154,198.995169 C215.095409,200.87871 214.893746,202.782849 214.824604,204.694014 C214.824604,209.792494 217.238806,213.089881 222.057925,213.089881 C224.840974,213.012125 227.550196,212.181936 229.894797,210.688423 L229.894797,211.288787 C220.553691,224.219715 208.798383,229.28125 195.835974,229.28125 C176.243794,229.28125 167.803372,217.587997 167.803372,201.692191 C167.723311,197.333904 168.232372,192.984677 169.316891,188.761263 L188.602653,110.50144 C191.016855,100.914081 192.521089,95.2152358 192.521089,91.0219206 C192.521089,85.61864 190.710437,82.0256893 186.188451,78.4235022 L186.188451,77.8231377 L245.874959,77.8231377 L215.428154,198.995169 Z M232.002581,5.95488715 C247.379193,5.95488715 258.224918,17.0385397 258.224918,31.4380517 C258.264304,39.0831879 255.228757,46.4266423 249.794068,51.8326423 C244.359379,57.2386423 236.976954,60.2581645 229.291246,60.2189868 C213.923921,60.2189868 203.069296,49.1349503 203.069296,34.7354383 C202.948425,27.0658173 205.95035,19.6734571 211.392538,14.2391225 C216.834727,8.80478789 224.254709,5.79028125 231.96544,5.88099614 L232.002581,5.95488715 Z" id="Shape" fill-rule="nonzero"></path>
                <path d="M319.798817,78.2142847 L342.338389,78.2142847 L338.728354,85.7142846 L318.299264,85.7142846 L284.642639,221.831894 C272.32224,271.902706 250.689806,292.583124 206.221591,293.183494 L206.221591,292.583124 C222.152023,281.794947 229.057371,255.711203 242.877322,195.74815 L268.415998,85.7142846 L254.596048,85.7142846 L255.521697,82.4168708 L270.813431,75.8220433 L273.516329,67.4261075 C284.337174,24.5504923 316.790455,0 351.039496,0 C369.969034,0 385.288538,9.2918718 385.288538,24.8830046 C385.288538,42.5800487 372.329441,52.4722899 357.343171,52.4722899 C347.420206,52.4722899 340.514859,47.0689649 339.015306,40.7789403 C348.021878,39.2733985 357.944844,31.4778321 357.944844,14.3903939 C357.944844,8.69150235 354.936482,4.8029556 349.530687,4.8029556 C338.709841,4.8029556 329.694013,19.7937189 323.99201,54.8645313 L319.798817,78.2142847 Z" id="Path" fill-rule="nonzero"></path>
                <path d="M320.219862,174.696144 C320.219862,127.038271 359.626857,74.8934295 411.045015,74.8934295 C435.716092,74.8934295 448.05163,87.4864825 448.05163,105.166612 C448.05163,138.726544 411.647426,153.110691 369.534213,154.911018 C368.60668,160.559225 368.101736,166.268283 368.023549,171.991038 C368.023549,195.995392 379.460104,207.655968 395.400845,207.655968 C408.941207,207.655968 418.264687,201.064003 429.691975,186.079747 L431.489942,186.079747 C418.857831,215.152712 397.198813,229.536859 371.02634,229.536859 C341.276469,229.536859 320.219862,210.656512 320.219862,174.696144 Z M370.461,150.414818 C395.734489,142.622635 414.687289,113.558903 414.687289,89.8776854 C414.687289,83.8858295 412.574214,80.294409 408.663171,80.294409 C395.132077,80.294409 376.781689,117.131859 370.461,150.414818 L370.461,150.414818 Z" id="Shape" fill-rule="nonzero"></path>
                <path d="M493.990801,190.325612 C493.387494,192.370578 493.075582,194.489851 493.064212,196.621286 C493.064212,205.30784 498.771999,210.403459 505.990126,210.403459 C510.808388,210.403459 517.109192,207.70795 522.835511,202.307702 L523.141286,202.907729 C512.02222,220.585465 497.270925,229.28125 478.322183,229.28125 C456.667802,229.28125 445.233696,216.689902 445.233696,197.221314 C445.387047,192.262629 446.095644,187.336504 447.346318,182.534484 L471.706339,85.4500187 L460.902313,85.4500187 L461.828902,81.5544549 C493.110541,73.4586979 513.254583,56.085591 532.509099,25.8165064 L535.214738,25.8165064 L522.242495,77.9542893 L550.521986,77.9542893 L547.204798,85.4500187 L520.139138,85.4500187 L493.990801,190.325612 Z" id="Path" fill-rule="nonzero"></path>
                <path d="M583.040555,198.995232 C582.70781,200.878769 582.506147,202.782904 582.437005,204.694065 C582.437005,209.792535 584.851207,213.089914 589.670326,213.089914 C592.453375,213.012159 595.162597,212.181972 597.507198,210.688461 L597.507198,211.288825 C588.166093,224.219726 576.410785,229.28125 563.448376,229.28125 C543.856196,229.28125 535.415773,217.588021 535.415773,201.692249 C535.335712,197.33397 535.844773,192.984752 536.929292,188.761347 L556.215054,110.501685 C558.629256,100.914346 560.13349,95.2155129 560.13349,91.0222064 C560.13349,85.6189369 558.322838,82.0259936 553.800852,78.423814 L553.800852,77.8234507 L613.48736,77.8234507 L583.040555,198.995232 Z M599.614982,5.95534871 C614.991594,5.95534871 625.837319,17.0389784 625.837319,31.4384606 C625.876705,39.083581 622.841158,46.4270202 617.406469,51.833009 C611.971781,57.2389979 604.589355,60.2585138 596.903648,60.2193362 C581.536322,60.2193362 570.681697,49.1353226 570.681697,34.7358404 C570.560598,27.0597459 573.567577,19.6616244 579.017883,14.2261825 C584.468188,8.79074061 591.897851,5.78068127 599.614982,5.88145785 L599.614982,5.95534871 Z" id="Shape" fill-rule="nonzero"></path>
                <path d="M806.529729,199.311423 C805.950878,201.1537 805.639155,203.068836 805.603994,204.998856 C805.603994,210.087127 808.010903,213.377911 813.120956,213.377911 C815.799002,213.291747 818.39949,212.461605 820.62866,210.981262 L820.62866,211.580424 C811.612009,224.485459 799.892215,229.536859 786.978223,229.536859 C767.13974,229.536859 758.428582,217.86702 758.428582,202.003044 C758.428582,197.818126 759.354316,193.633207 760.28005,189.098009 L777.406132,120.572271 C778.537625,116.988969 779.160804,113.265829 779.2576,109.510812 C779.2576,104.726731 777.406132,101.73092 772.647858,101.73092 C763.325715,101.73092 753.707337,113.999921 747.097595,139.137086 L725.463188,226.504176 L677.084321,226.504176 L703.532546,120.581489 C704.636691,117.195853 705.241635,113.668601 705.32847,110.109975 C705.32847,105.021704 703.227054,101.73092 698.117001,101.73092 C688.804115,101.73092 679.49123,113.999921 672.881488,140.031221 L651.210051,226.504176 L602.525692,226.504176 L631.371568,111.004109 C633.472985,101.435947 634.981931,95.7485139 634.981931,91.5635953 C634.981931,86.1711341 633.130463,82.5853778 628.964659,78.9904037 L628.964659,78.3912413 L688.211646,78.3912413 L679.500487,112.801596 C690.609297,89.1669459 704.439765,75.4046474 725.176211,75.4046474 C745.005436,75.4046474 753.716595,88.8627557 753.716595,106.220028 C753.666174,108.32673 753.468204,110.427362 753.124125,112.506624 C764.538427,88.8627557 778.961365,75.4046474 799.410833,75.4046474 C819.545551,75.4046474 827.960474,88.3096828 827.960474,105.325894 C827.836336,110.965671 827.132187,116.577942 825.859058,122.074786 L806.529729,199.311423 Z" id="Path" fill-rule="nonzero"></path>
                <path d="M831.290761,174.696144 C831.290761,127.038271 870.707024,74.8934295 922.115914,74.8934295 C946.786991,74.8934295 959.12253,87.4864825 959.12253,105.166612 C959.12253,138.726544 922.718326,153.110691 880.605112,154.911018 C879.680481,160.559431 879.178633,166.268502 879.103716,171.991038 C879.103716,195.995392 890.531003,207.655968 906.471745,207.655968 C920.012107,207.655968 929.335587,201.064003 940.762874,186.079747 L942.616448,186.079747 C929.97507,215.152712 908.325319,229.536859 882.143579,229.536859 C852.393707,229.536859 831.290761,210.656512 831.290761,174.696144 Z M881.531899,150.414818 C906.805388,142.622635 925.758188,113.558903 925.758188,89.8776854 C925.758188,83.8858295 923.654381,80.294409 919.743338,80.294409 C906.240048,80.294409 887.88966,117.131859 881.568971,150.414818 L881.531899,150.414818 Z" id="Shape" fill-rule="nonzero"></path>
                <path d="M963.733657,219.040839 C963.671879,224.889233 958.877461,229.584297 953.015857,229.536497 C947.154253,229.488698 942.437387,224.716072 942.471278,218.867453 C942.505536,213.018834 947.277694,208.301246 953.139458,208.321378 C959.020926,208.387822 963.749351,213.172143 963.733657,219.040839 L963.733657,219.040839 Z M962.521258,219.040839 C962.459626,213.865403 958.21565,209.713836 953.028434,209.754711 C947.841217,209.795586 943.663489,214.013517 943.683716,219.189278 C943.70409,224.36504 947.914777,228.550216 953.102155,228.550581 C955.610953,228.533383 958.009858,227.521182 959.769837,225.737202 C961.529816,223.953222 962.506304,221.543998 962.483954,219.040839 L962.521258,219.040839 Z M954.295863,219.971342 L957.811706,224.884399 L956.440807,224.884399 L952.999571,220.036478 L950.677435,220.036478 L950.677435,224.884399 L949.549008,224.884399 L949.549008,213.057704 L953.549796,213.057704 C956.151706,213.057704 957.280133,214.555814 957.280133,216.509871 C957.344074,217.367853 957.060177,218.215538 956.492117,218.862802 C955.924056,219.510065 955.119378,219.902732 954.25856,219.952732 L954.295863,219.971342 Z M950.714739,218.966399 L953.279346,218.966399 C955.489571,218.966399 956.170358,217.775355 956.170358,216.509871 C956.170358,215.039676 955.135189,214.165003 953.549796,214.165003 L950.752042,214.165003 L950.714739,218.966399 Z" id="Shape" fill-rule="nonzero"></path>
            </g>
        </g>
    </g>
</svg>
